<mxfile host="app.diagrams.net" modified="2023-10-08T13:32:33.954Z" agent="Mozilla/5.0 (Windows NT 10.0; Win64; x64) AppleWebKit/537.36 (KHTML, like Gecko) Chrome/117.0.0.0 Safari/537.36" etag="3Q8hcRRXsvxdYPPOqI5x" version="22.0.0" type="github">
  <diagram name="Page-1" id="Q_BKA4Nunb_h3q0ngrSA">
    <mxGraphModel dx="2524" dy="758" grid="1" gridSize="10" guides="1" tooltips="1" connect="1" arrows="1" fold="1" page="1" pageScale="1" pageWidth="850" pageHeight="1100" math="0" shadow="0">
      <root>
        <mxCell id="0" />
        <mxCell id="1" parent="0" />
        <mxCell id="9e6olsO_jjLZugLua6JU-5" style="rounded=0;orthogonalLoop=1;jettySize=auto;html=1;endArrow=none;endFill=0;" edge="1" parent="1" source="9e6olsO_jjLZugLua6JU-2" target="9e6olsO_jjLZugLua6JU-3">
          <mxGeometry relative="1" as="geometry" />
        </mxCell>
        <mxCell id="9e6olsO_jjLZugLua6JU-6" style="edgeStyle=none;shape=connector;rounded=0;orthogonalLoop=1;jettySize=auto;html=1;entryX=0.5;entryY=1;entryDx=0;entryDy=0;labelBackgroundColor=default;strokeColor=default;align=center;verticalAlign=middle;fontFamily=Helvetica;fontSize=11;fontColor=default;endArrow=none;endFill=0;" edge="1" parent="1" source="9e6olsO_jjLZugLua6JU-2" target="9e6olsO_jjLZugLua6JU-4">
          <mxGeometry relative="1" as="geometry" />
        </mxCell>
        <mxCell id="9e6olsO_jjLZugLua6JU-29" style="edgeStyle=none;shape=connector;rounded=0;orthogonalLoop=1;jettySize=auto;html=1;labelBackgroundColor=default;strokeColor=default;align=center;verticalAlign=middle;fontFamily=Helvetica;fontSize=11;fontColor=default;endArrow=none;endFill=0;" edge="1" parent="1" source="9e6olsO_jjLZugLua6JU-2" target="9e6olsO_jjLZugLua6JU-28">
          <mxGeometry relative="1" as="geometry" />
        </mxCell>
        <mxCell id="9e6olsO_jjLZugLua6JU-39" style="edgeStyle=none;shape=connector;rounded=0;orthogonalLoop=1;jettySize=auto;html=1;entryX=0.5;entryY=0;entryDx=0;entryDy=0;labelBackgroundColor=default;strokeColor=default;align=center;verticalAlign=middle;fontFamily=Helvetica;fontSize=11;fontColor=default;endArrow=none;endFill=0;" edge="1" parent="1" source="9e6olsO_jjLZugLua6JU-2" target="9e6olsO_jjLZugLua6JU-38">
          <mxGeometry relative="1" as="geometry" />
        </mxCell>
        <mxCell id="9e6olsO_jjLZugLua6JU-2" value="STATE" style="rounded=1;whiteSpace=wrap;html=1;" vertex="1" parent="1">
          <mxGeometry x="40" y="360" width="120" height="60" as="geometry" />
        </mxCell>
        <mxCell id="9e6olsO_jjLZugLua6JU-3" value="Name state" style="ellipse;whiteSpace=wrap;html=1;" vertex="1" parent="1">
          <mxGeometry x="-40" y="300" width="70" height="40" as="geometry" />
        </mxCell>
        <mxCell id="9e6olsO_jjLZugLua6JU-4" value="Region of state" style="ellipse;whiteSpace=wrap;html=1;" vertex="1" parent="1">
          <mxGeometry x="50" y="280" width="100" height="40" as="geometry" />
        </mxCell>
        <mxCell id="9e6olsO_jjLZugLua6JU-11" style="edgeStyle=none;shape=connector;rounded=0;orthogonalLoop=1;jettySize=auto;html=1;labelBackgroundColor=default;strokeColor=default;align=center;verticalAlign=middle;fontFamily=Helvetica;fontSize=11;fontColor=default;endArrow=none;endFill=0;" edge="1" parent="1" source="9e6olsO_jjLZugLua6JU-7" target="9e6olsO_jjLZugLua6JU-10">
          <mxGeometry relative="1" as="geometry" />
        </mxCell>
        <mxCell id="9e6olsO_jjLZugLua6JU-7" value="CONGRESS_PERSON" style="rounded=1;whiteSpace=wrap;html=1;fontFamily=Helvetica;fontSize=11;fontColor=default;" vertex="1" parent="1">
          <mxGeometry x="650" y="360" width="120" height="60" as="geometry" />
        </mxCell>
        <mxCell id="9e6olsO_jjLZugLua6JU-8" value="Name" style="ellipse;whiteSpace=wrap;html=1;fontFamily=Helvetica;fontSize=11;fontColor=default;" vertex="1" parent="1">
          <mxGeometry x="770" y="280" width="70" height="30" as="geometry" />
        </mxCell>
        <mxCell id="9e6olsO_jjLZugLua6JU-9" value="District" style="ellipse;whiteSpace=wrap;html=1;fontFamily=Helvetica;fontSize=11;fontColor=default;" vertex="1" parent="1">
          <mxGeometry x="810" y="320" width="80" height="30" as="geometry" />
        </mxCell>
        <mxCell id="9e6olsO_jjLZugLua6JU-10" value="Start_date" style="ellipse;whiteSpace=wrap;html=1;fontFamily=Helvetica;fontSize=11;fontColor=default;" vertex="1" parent="1">
          <mxGeometry x="690" y="250" width="80" height="30" as="geometry" />
        </mxCell>
        <mxCell id="9e6olsO_jjLZugLua6JU-12" style="edgeStyle=none;shape=connector;rounded=0;orthogonalLoop=1;jettySize=auto;html=1;entryX=0.271;entryY=0.9;entryDx=0;entryDy=0;entryPerimeter=0;labelBackgroundColor=default;strokeColor=default;align=center;verticalAlign=middle;fontFamily=Helvetica;fontSize=11;fontColor=default;endArrow=none;endFill=0;" edge="1" parent="1" source="9e6olsO_jjLZugLua6JU-7" target="9e6olsO_jjLZugLua6JU-8">
          <mxGeometry relative="1" as="geometry" />
        </mxCell>
        <mxCell id="9e6olsO_jjLZugLua6JU-13" style="edgeStyle=none;shape=connector;rounded=0;orthogonalLoop=1;jettySize=auto;html=1;entryX=0.263;entryY=0.933;entryDx=0;entryDy=0;entryPerimeter=0;labelBackgroundColor=default;strokeColor=default;align=center;verticalAlign=middle;fontFamily=Helvetica;fontSize=11;fontColor=default;endArrow=none;endFill=0;" edge="1" parent="1" source="9e6olsO_jjLZugLua6JU-7" target="9e6olsO_jjLZugLua6JU-9">
          <mxGeometry relative="1" as="geometry" />
        </mxCell>
        <mxCell id="9e6olsO_jjLZugLua6JU-14" value="The political party" style="ellipse;whiteSpace=wrap;html=1;fontFamily=Helvetica;fontSize=11;fontColor=default;" vertex="1" parent="1">
          <mxGeometry x="580" y="250" width="90" height="30" as="geometry" />
        </mxCell>
        <mxCell id="9e6olsO_jjLZugLua6JU-15" style="edgeStyle=none;shape=connector;rounded=0;orthogonalLoop=1;jettySize=auto;html=1;entryX=0.678;entryY=0.933;entryDx=0;entryDy=0;entryPerimeter=0;labelBackgroundColor=default;strokeColor=default;align=center;verticalAlign=middle;fontFamily=Helvetica;fontSize=11;fontColor=default;endArrow=none;endFill=0;" edge="1" parent="1" source="9e6olsO_jjLZugLua6JU-7" target="9e6olsO_jjLZugLua6JU-14">
          <mxGeometry relative="1" as="geometry" />
        </mxCell>
        <mxCell id="9e6olsO_jjLZugLua6JU-21" style="edgeStyle=none;shape=connector;rounded=0;orthogonalLoop=1;jettySize=auto;html=1;labelBackgroundColor=default;strokeColor=default;align=center;verticalAlign=middle;fontFamily=Helvetica;fontSize=11;fontColor=default;endArrow=none;endFill=0;" edge="1" parent="1" source="9e6olsO_jjLZugLua6JU-16" target="9e6olsO_jjLZugLua6JU-20">
          <mxGeometry relative="1" as="geometry" />
        </mxCell>
        <mxCell id="9e6olsO_jjLZugLua6JU-22" style="edgeStyle=none;shape=connector;rounded=0;orthogonalLoop=1;jettySize=auto;html=1;labelBackgroundColor=default;strokeColor=default;align=center;verticalAlign=middle;fontFamily=Helvetica;fontSize=11;fontColor=default;endArrow=none;endFill=0;" edge="1" parent="1" source="9e6olsO_jjLZugLua6JU-16" target="9e6olsO_jjLZugLua6JU-19">
          <mxGeometry relative="1" as="geometry" />
        </mxCell>
        <mxCell id="9e6olsO_jjLZugLua6JU-23" style="edgeStyle=none;shape=connector;rounded=0;orthogonalLoop=1;jettySize=auto;html=1;labelBackgroundColor=default;strokeColor=default;align=center;verticalAlign=middle;fontFamily=Helvetica;fontSize=11;fontColor=default;endArrow=none;endFill=0;" edge="1" parent="1" source="9e6olsO_jjLZugLua6JU-16" target="9e6olsO_jjLZugLua6JU-17">
          <mxGeometry relative="1" as="geometry" />
        </mxCell>
        <mxCell id="9e6olsO_jjLZugLua6JU-16" value="BILL" style="rounded=1;whiteSpace=wrap;html=1;fontFamily=Helvetica;fontSize=11;fontColor=default;" vertex="1" parent="1">
          <mxGeometry x="40" y="690" width="120" height="60" as="geometry" />
        </mxCell>
        <mxCell id="9e6olsO_jjLZugLua6JU-17" value="Bill Name" style="ellipse;whiteSpace=wrap;html=1;fontFamily=Helvetica;fontSize=11;fontColor=default;" vertex="1" parent="1">
          <mxGeometry x="140" y="830" width="80" height="30" as="geometry" />
        </mxCell>
        <mxCell id="9e6olsO_jjLZugLua6JU-19" value="The date of vote" style="ellipse;whiteSpace=wrap;html=1;fontFamily=Helvetica;fontSize=11;fontColor=default;" vertex="1" parent="1">
          <mxGeometry x="20" y="830" width="90" height="40" as="geometry" />
        </mxCell>
        <mxCell id="9e6olsO_jjLZugLua6JU-20" value="Passed or Failed" style="ellipse;whiteSpace=wrap;html=1;fontFamily=Helvetica;fontSize=11;fontColor=default;" vertex="1" parent="1">
          <mxGeometry x="-70" y="790" width="90" height="40" as="geometry" />
        </mxCell>
        <mxCell id="9e6olsO_jjLZugLua6JU-30" style="edgeStyle=none;shape=connector;rounded=0;orthogonalLoop=1;jettySize=auto;html=1;labelBackgroundColor=default;strokeColor=default;align=center;verticalAlign=middle;fontFamily=Helvetica;fontSize=11;fontColor=default;endArrow=none;endFill=0;" edge="1" parent="1" source="9e6olsO_jjLZugLua6JU-28" target="9e6olsO_jjLZugLua6JU-7">
          <mxGeometry relative="1" as="geometry" />
        </mxCell>
        <mxCell id="9e6olsO_jjLZugLua6JU-28" value="Represents" style="rhombus;whiteSpace=wrap;html=1;fontFamily=Helvetica;fontSize=11;fontColor=default;" vertex="1" parent="1">
          <mxGeometry x="370" y="360" width="70" height="60" as="geometry" />
        </mxCell>
        <mxCell id="9e6olsO_jjLZugLua6JU-31" value="(1, 1)" style="text;html=1;align=center;verticalAlign=middle;resizable=0;points=[];autosize=1;strokeColor=none;fillColor=none;fontSize=11;fontFamily=Helvetica;fontColor=default;" vertex="1" parent="1">
          <mxGeometry x="185" y="368" width="50" height="30" as="geometry" />
        </mxCell>
        <mxCell id="9e6olsO_jjLZugLua6JU-32" value="(1, 52)" style="text;html=1;align=center;verticalAlign=middle;resizable=0;points=[];autosize=1;strokeColor=none;fillColor=none;fontSize=11;fontFamily=Helvetica;fontColor=default;" vertex="1" parent="1">
          <mxGeometry x="550" y="358" width="60" height="30" as="geometry" />
        </mxCell>
        <mxCell id="9e6olsO_jjLZugLua6JU-35" style="edgeStyle=none;shape=connector;rounded=0;orthogonalLoop=1;jettySize=auto;html=1;entryX=0.5;entryY=0;entryDx=0;entryDy=0;labelBackgroundColor=default;strokeColor=default;align=center;verticalAlign=middle;fontFamily=Helvetica;fontSize=11;fontColor=default;endArrow=none;endFill=0;" edge="1" parent="1" source="9e6olsO_jjLZugLua6JU-33" target="9e6olsO_jjLZugLua6JU-16">
          <mxGeometry relative="1" as="geometry" />
        </mxCell>
        <mxCell id="9e6olsO_jjLZugLua6JU-33" value="Sponsored" style="rhombus;whiteSpace=wrap;html=1;fontFamily=Helvetica;fontSize=11;fontColor=default;" vertex="1" parent="1">
          <mxGeometry x="240" y="530" width="70" height="60" as="geometry" />
        </mxCell>
        <mxCell id="9e6olsO_jjLZugLua6JU-34" style="edgeStyle=none;shape=connector;rounded=0;orthogonalLoop=1;jettySize=auto;html=1;labelBackgroundColor=default;strokeColor=default;align=center;verticalAlign=middle;fontFamily=Helvetica;fontSize=11;fontColor=default;endArrow=none;endFill=0;" edge="1" parent="1" source="9e6olsO_jjLZugLua6JU-2" target="9e6olsO_jjLZugLua6JU-33">
          <mxGeometry relative="1" as="geometry">
            <Array as="points" />
          </mxGeometry>
        </mxCell>
        <mxCell id="9e6olsO_jjLZugLua6JU-36" value="(0, n)" style="text;html=1;align=center;verticalAlign=middle;resizable=0;points=[];autosize=1;strokeColor=none;fillColor=none;fontSize=11;fontFamily=Helvetica;fontColor=default;" vertex="1" parent="1">
          <mxGeometry x="165" y="448" width="50" height="30" as="geometry" />
        </mxCell>
        <mxCell id="9e6olsO_jjLZugLua6JU-37" value="(1, n)" style="text;html=1;align=center;verticalAlign=middle;resizable=0;points=[];autosize=1;strokeColor=none;fillColor=none;fontSize=11;fontFamily=Helvetica;fontColor=default;" vertex="1" parent="1">
          <mxGeometry x="135" y="648" width="50" height="30" as="geometry" />
        </mxCell>
        <mxCell id="9e6olsO_jjLZugLua6JU-40" style="edgeStyle=none;shape=connector;rounded=0;orthogonalLoop=1;jettySize=auto;html=1;entryX=0.25;entryY=0;entryDx=0;entryDy=0;labelBackgroundColor=default;strokeColor=default;align=center;verticalAlign=middle;fontFamily=Helvetica;fontSize=11;fontColor=default;endArrow=none;endFill=0;exitX=0.5;exitY=1;exitDx=0;exitDy=0;" edge="1" parent="1" source="9e6olsO_jjLZugLua6JU-38" target="9e6olsO_jjLZugLua6JU-16">
          <mxGeometry relative="1" as="geometry" />
        </mxCell>
        <mxCell id="9e6olsO_jjLZugLua6JU-44" style="edgeStyle=none;shape=connector;rounded=0;orthogonalLoop=1;jettySize=auto;html=1;labelBackgroundColor=default;strokeColor=default;align=center;verticalAlign=middle;fontFamily=Helvetica;fontSize=11;fontColor=default;endArrow=none;endFill=0;" edge="1" parent="1" source="9e6olsO_jjLZugLua6JU-38" target="9e6olsO_jjLZugLua6JU-43">
          <mxGeometry relative="1" as="geometry" />
        </mxCell>
        <mxCell id="9e6olsO_jjLZugLua6JU-38" value="Voted" style="rhombus;whiteSpace=wrap;html=1;fontFamily=Helvetica;fontSize=11;fontColor=default;" vertex="1" parent="1">
          <mxGeometry x="-20" y="520" width="50" height="40" as="geometry" />
        </mxCell>
        <mxCell id="9e6olsO_jjLZugLua6JU-43" value="How" style="ellipse;whiteSpace=wrap;html=1;fontFamily=Helvetica;fontSize=11;fontColor=default;" vertex="1" parent="1">
          <mxGeometry x="-80" y="580" width="40" height="20" as="geometry" />
        </mxCell>
        <mxCell id="9e6olsO_jjLZugLua6JU-45" value="(1, n)" style="text;html=1;align=center;verticalAlign=middle;resizable=0;points=[];autosize=1;strokeColor=none;fillColor=none;fontSize=11;fontFamily=Helvetica;fontColor=default;" vertex="1" parent="1">
          <mxGeometry x="-5" y="448" width="50" height="30" as="geometry" />
        </mxCell>
        <mxCell id="9e6olsO_jjLZugLua6JU-46" value="(1, 1)" style="text;html=1;align=center;verticalAlign=middle;resizable=0;points=[];autosize=1;strokeColor=none;fillColor=none;fontSize=11;fontFamily=Helvetica;fontColor=default;" vertex="1" parent="1">
          <mxGeometry x="-15" y="608" width="50" height="30" as="geometry" />
        </mxCell>
      </root>
    </mxGraphModel>
  </diagram>
</mxfile>
